<?xml version="1.0" encoding="UTF-8"?>
<svg xmlns="http://www.w3.org/2000/svg" viewBox="0 0 512 512">
  <defs>
    <style>
      .cls-1 {
        fill: #f8f5ff;
      }
    </style>
  </defs>
  <g id="Parentheses">
    <g>
      <path class="cls-1" d="M444.51,255.98c0,58.16-26.41,110.15-67.88,144.64h74.69c34.94-39.5,55.88-89.83,55.88-144.64s-20.94-105.15-55.88-144.64h-74.69c41.48,34.49,67.88,86.48,67.88,144.64Z"/>
      <path class="cls-1" d="M67.49,256.02c0-58.16,26.41-110.15,67.88-144.64H60.69C25.75,150.87,4.81,201.2,4.81,256.02s20.94,105.15,55.88,144.64h74.69c-41.48-34.49-67.88-86.48-67.88-144.64Z"/>
    </g>
  </g>
  <g id="Action">
    <g id="Hourglass">
      <path class="cls-1" d="M292.69,218.41c-16.84,12.03-30.07,21.65-30.67,37.29v.6c.6,15.64,13.83,25.26,30.67,37.29,26.46,18.64,62.55,43.9,39.09,107.06h21.65c24.06-72.17-18.04-102.24-48.72-123.9-12.03-8.42-22.25-15.64-22.25-21.05s10.22-12.03,22.25-20.45c30.67-22.25,72.77-51.72,48.72-123.89h-21.65c23.46,63.15-12.63,88.41-39.09,107.05Z"/>
      <path class="cls-1" d="M219.31,293.59c16.84-12.03,30.67-21.65,30.67-37.29v-.6c0-15.64-13.83-25.26-30.67-37.29-26.46-18.64-62.55-43.9-39.09-107.05h-21.65c-24.06,72.17,18.04,101.64,49.32,123.89,12.03,8.42,21.65,15.04,21.65,20.45s-9.62,12.63-21.65,21.05c-31.27,21.65-73.37,51.72-49.32,123.9h21.65c-23.46-63.15,12.63-88.41,39.09-107.06Z"/>
      <path class="cls-1" d="M259.01,348.92l-.6-19.25c.6-26.46,1.8-52.32,1.8-78.79,0-43.9,86-49.92,63.15-122.09-79.39-13.23-83,64.95-134.72,0-22.85,72.17,63.75,78.19,63.75,122.09,0,26.46.6,52.32,1.2,78.79l-.6,19.25c-5.41,30.07-49.32,19.85-64.35,46.31h134.72c-15.04-26.46-58.94-16.24-64.35-46.31Z"/>
    </g>
  </g>
</svg>