<?xml version="1.0" encoding="UTF-8"?>
<svg xmlns="http://www.w3.org/2000/svg" viewBox="0 0 512 512">
  <defs>
    <style>
      .cls-1 {
        fill: #ff0037;
      }

      .cls-2 {
        fill: #f8f5ff;
      }
    </style>
  </defs>
  <g id="Parentheses">
    <g>
      <path class="cls-2" d="M444.51,255.98c0,58.16-26.41,110.15-67.88,144.64h74.69c34.94-39.5,55.88-89.83,55.88-144.64s-20.94-105.15-55.88-144.64h-74.69c41.48,34.49,67.88,86.48,67.88,144.64Z"/>
      <path class="cls-2" d="M67.49,256.02c0-58.16,26.41-110.15,67.88-144.64H60.69C25.75,150.87,4.81,201.2,4.81,256.02s20.94,105.15,55.88,144.64h74.69c-41.48-34.49-67.88-86.48-67.88-144.64Z"/>
    </g>
  </g>
  <g id="Action">
    <path id="Exit" class="cls-1" d="M238.46,358.06l-100.26-100.26c-1-1-1-2.61,0-3.61l100.26-100.26h42.18c.13,0,.2.15.1.25l-101.82,101.82,101.82,101.82c.09.09.03.25-.1.25h-42.18ZM332.02,358.06l-100.26-100.26c-1-1-1-2.61,0-3.61l100.26-100.26h42.18c.13,0,.2.15.1.25l-101.82,101.82,101.82,101.82c.09.09.03.25-.1.25h-42.18Z"/>
  </g>
</svg>