<?xml version="1.0" encoding="UTF-8"?>
<svg xmlns="http://www.w3.org/2000/svg" viewBox="0 0 512 512">
  <defs>
    <style>
      .cls-1 {
        fill: #f8f5ff;
      }
    </style>
  </defs>
  <g id="Parentheses">
    <g>
      <path class="cls-1" d="M444.51,255.98c0,58.16-26.41,110.15-67.88,144.64h74.69c34.94-39.5,55.88-89.83,55.88-144.64s-20.94-105.15-55.88-144.64h-74.69c41.48,34.49,67.88,86.48,67.88,144.64Z"/>
      <path class="cls-1" d="M67.49,256.02c0-58.16,26.41-110.15,67.88-144.64H60.69C25.75,150.87,4.81,201.2,4.81,256.02s20.94,105.15,55.88,144.64h74.69c-41.48-34.49-67.88-86.48-67.88-144.64Z"/>
    </g>
  </g>
  <g id="Action">
    <path class="cls-1" d="M382.27,337.01l-105.56-182.08c-9.21-15.91-32.21-15.91-41.42,0l-105.56,182.08c-9.27,15.97,2.26,35.96,20.71,35.96h211.13c18.44,0,29.97-19.99,20.71-35.96ZM241.76,208.66c0-7.87,6.38-14.24,14.24-14.24s14.24,6.38,14.24,14.24v63.76c0,7.87-6.38,14.24-14.24,14.24s-14.24-6.38-14.24-14.24v-63.76ZM256,341.07c-10.27,0-18.59-8.32-18.59-18.59s8.32-18.59,18.59-18.59,18.59,8.32,18.59,18.59-8.32,18.59-18.59,18.59Z"/>
  </g>
</svg>