<?xml version="1.0" encoding="UTF-8"?>
<svg xmlns="http://www.w3.org/2000/svg" viewBox="0 0 512 512">
  <defs>
    <style>
      .cls-1 {
        fill: #f8f5ff;
      }
    </style>
  </defs>
  <g id="Parentheses">
    <g>
      <path class="cls-1" d="M444.51,255.98c0,58.16-26.41,110.15-67.88,144.64h74.69c34.94-39.5,55.88-89.83,55.88-144.64s-20.94-105.15-55.88-144.64h-74.69c41.48,34.49,67.88,86.48,67.88,144.64Z"/>
      <path class="cls-1" d="M67.49,256.02c0-58.16,26.41-110.15,67.88-144.64H60.69C25.75,150.87,4.81,201.2,4.81,256.02s20.94,105.15,55.88,144.64h74.69c-41.48-34.49-67.88-86.48-67.88-144.64Z"/>
    </g>
  </g>
  <g id="Action">
    <g id="Magnifying_Glass" data-name="Magnifying Glass">
      <path class="cls-1" d="M212.35,297.32c-43.99,0-79.66-35.65-79.67-79.65,0-21.14,8.4-41.41,23.35-56.35,31.11-31.11,81.54-31.12,112.66-.01,0,0,0,0,.01.01h0c31.12,31.1,31.13,81.54.03,112.66-14.95,14.95-35.23,23.35-56.37,23.35Z"/>
      <path class="cls-1" d="M347.13,381.79c-7.65.01-14.99-3.02-20.4-8.43l-56.34-56.35c-1.83-1.83-1.83-4.79,0-6.62l34.72-34.72c1.83-1.83,4.79-1.83,6.62,0l56.35,56.34c11.25,11.27,11.25,29.52,0,40.8h0l-.55.55c-5.41,5.41-12.75,8.45-20.4,8.43ZM364.76,369.5"/>
    </g>
  </g>
</svg>