<?xml version="1.0" encoding="UTF-8"?>
<svg id="Layer_2" data-name="Layer 2" xmlns="http://www.w3.org/2000/svg" viewBox="0 0 512 512">
  <defs>
    <style>
      .cls-1 {
        fill: #ff0040;
      }
    </style>
  </defs>
  <path class="cls-1" d="M325.74,214.88c25.03,0,41.59,16.21,41.59,40.77s-16.57,41.47-41.83,41.47h-32.19v-82.25h32.43ZM325.85,282.55c15.16,0,25.03-10.34,25.03-26.2s-9.87-26.91-25.38-26.91h-15.98v53.11h16.33Z"/>
  <path class="cls-1" d="M391.64,282.91h42.89v14.22h-58.86v-82.25h58.86v14.1h-42.88v19.5h40.6v13.86h-40.6v20.56Z"/>
  <path class="cls-1" d="M492.14,297.12l-22.44-27.61h-9.63v27.61h-16.45v-82.25h34.78c17.39,0,29.37,10.93,29.37,27.14,0,13.28-7.64,22.91-20.09,26.2l24.32,28.9h-19.86ZM476.99,228.98h-17.04v27.02h17.15c9.05,0,14.33-4.93,14.33-13.28s-5.29-13.75-14.45-13.75Z"/>
  <path class="cls-1" d="M265.59,214.88v55.9c-1.73-2.49-40.3-55.9-40.3-55.9h-18.77l59.89,82.25h15.27v-82.25h-16.1Z"/>
  <path class="cls-1" d="M221.47,256c0,16.54-7.51,31.32-19.3,41.12h21.23c9.93-11.23,15.89-25.54,15.89-41.12s-5.95-29.89-15.89-41.12h-21.23c11.79,9.81,19.3,24.59,19.3,41.12Z"/>
  <path class="cls-1" d="M114.28,256.01c0-16.54,7.51-31.32,19.3-41.12h-21.23c-9.93,11.23-15.89,25.54-15.89,41.12s5.95,29.89,15.89,41.12h21.23c-11.79-9.81-19.3-24.59-19.3-41.12Z"/>
  <path class="cls-1" d="M98.92,238.92l-4.11,13.54c-2.35,7.64-4.35,14.92-6.34,22.79h-.35c-1.17-4.7-4.11-14.45-7.05-22.79l-12.69-37.6h-12.92l-12.69,37.83c-3.29,9.75-5.17,16.33-6.81,22.56h-.35c-1.29-5.64-4.11-15.27-6.34-22.44l-11.87-37.95H0l28.08,82.25h14.8l10.57-32.43c3.17-9.63,6.23-19.62,8.22-25.5h.35c1.76,5.87,5.05,16.33,7.99,25.38l10.81,32.55h15.04l19.45-58.19h-16.4Z"/>
</svg>